<svg xmlns="http://www.w3.org/2000/svg" viewBox="0 0 1200 630" role="img" aria-label="Lorem Ipsum API social card">
  <defs>
    <linearGradient id="bg" x1="0" y1="0" x2="1" y2="1">
      <stop offset="0%" stop-color="#17181b"/>
      <stop offset="100%" stop-color="#0f1012"/>
    </linearGradient>
    <radialGradient id="glow" cx="0.25" cy="0.2" r="0.8">
      <stop offset="0%" stop-color="#2f3138" stop-opacity="0.9"/>
      <stop offset="100%" stop-color="#2f3138" stop-opacity="0"/>
    </radialGradient>
  </defs>
  <rect width="1200" height="630" fill="url(#bg)"/>
  <rect width="1200" height="630" fill="url(#glow)"/>
  <g transform="translate(116,95) scale(0.65625)">
    <rect width="256" height="256" rx="64" fill="#121316"/>
    <path d="M101 63c-24 18-38 43-38 74 0 22 9 41 27 58l22-18c-10-12-15-24-15-38 0-18 7-34 22-47l-18-29Zm64 0c-24 18-38 43-38 74 0 22 9 41 27 58l22-18c-10-12-15-24-15-38 0-18 7-34 22-47l-18-29Z" fill="#f4ede3"/>
  </g>
  <g fill="#f6efe5">
    <text x="116" y="374" font-family="Didot, Bodoni 72, serif" font-size="106">Lorem Ipsum API</text>
    <text x="116" y="454" font-family="Georgia, Times New Roman, serif" font-size="40" fill="#d5c8b5">Paid placeholder text over MPP and x402.</text>
    <text x="116" y="512" font-family="Georgia, Times New Roman, serif" font-size="30" fill="#a9a093">Generate words, sentences, or paragraphs with dual 402 payment discovery.</text>
  </g>
  <g transform="translate(930 132)">
    <rect width="160" height="44" rx="22" fill="#f4ede3" fill-opacity="0.1" stroke="#f4ede3" stroke-opacity="0.2"/>
    <text x="80" y="29" text-anchor="middle" font-family="Georgia, Times New Roman, serif" font-size="23" fill="#f4ede3">MPP + x402</text>
  </g>
</svg>
